<svg xmlns="http://www.w3.org/2000/svg" width="85.69" height="15.752" viewBox="0 0 85.69 15.752">
  <path id="logo" d="M10.01,0l6.05-15.4H12.034L8.1-4.07,4.158-15.4H-.022L5.962,0ZM22.594,0V-15.4H18.678V0ZM37-2.838,38.1,0h4.18l-6.49-15.4H31.768L25.124,0H29.15l1.122-2.838ZM35.86-5.808H31.416l2.244-5.7Zm17.93-9.614H44.572v3.168h5.28v7.172c0,1.254-.616,1.892-1.65,1.892a4.944,4.944,0,0,1-3.234-1.716l-1.8,2.618a6.8,6.8,0,0,0,5.3,2.464c3.278,0,5.324-1.892,5.324-5.17Zm15.972,3.1V-15.4H57.706V0H70V-3.08H61.622v-3.1H68.97v-3.08H61.622V-12.32Zm9.79-3.256c-3.7,0-6.138,1.8-6.138,4.642,0,5.456,8.14,3.828,8.14,6.556,0,.88-.77,1.342-2,1.342a9.6,9.6,0,0,1-5.566-2.31L72.468-2.332A11.484,11.484,0,0,0,79.508.132c3.432,0,6.16-1.628,6.16-4.708,0-5.566-8.14-4.048-8.14-6.71,0-.748.682-1.122,1.694-1.122A11.477,11.477,0,0,1,84.15-10.8l1.474-3.058A11.559,11.559,0,0,0,79.552-15.576Z" transform="translate(0.022 15.576)" fill="#fff"/>
</svg>
