<svg xmlns="http://www.w3.org/2000/svg" width="101.27" height="18.616" viewBox="0 0 101.27 18.616">
  <path id="Trazado_6" data-name="Trazado 6" d="M11.83,0l7.15-18.2H14.222L9.568-4.81,4.914-18.2H-.026L7.046,0ZM26.7,0V-18.2H22.074V0Zm17.03-3.354L45.032,0h4.94L42.3-18.2H37.544L29.692,0H34.45l1.326-3.354ZM42.38-6.864H37.128L39.78-13.6ZM63.57-18.226H52.676v3.744h6.24v8.476c0,1.482-.728,2.236-1.95,2.236A5.843,5.843,0,0,1,53.144-5.8L51.012-2.7A8.042,8.042,0,0,0,57.278.208c3.874,0,6.292-2.236,6.292-6.11ZM82.446-14.56V-18.2H68.2V0H82.732V-3.64H72.826V-7.306H81.51v-3.64H72.826V-14.56Zm11.57-3.848c-4.368,0-7.254,2.132-7.254,5.486,0,6.448,9.62,4.524,9.62,7.748,0,1.04-.91,1.586-2.366,1.586a11.346,11.346,0,0,1-6.578-2.73L85.644-2.756A13.571,13.571,0,0,0,93.964.156c4.056,0,7.28-1.924,7.28-5.564,0-6.578-9.62-4.784-9.62-7.93,0-.884.806-1.326,2-1.326a13.564,13.564,0,0,1,5.824,1.9l1.742-3.614A13.661,13.661,0,0,0,94.016-18.408Z" transform="translate(0.026 18.408)" fill="#fa6980"/>
</svg>
